<?xml version="1.0" encoding="UTF-8" standalone="no"?><!DOCTYPE svg PUBLIC "-//W3C//DTD SVG 1.1//EN" "http://www.w3.org/Graphics/SVG/1.1/DTD/svg11.dtd"><svg width="100%" height="100%" viewBox="0 0 64 22" version="1.1" xmlns="http://www.w3.org/2000/svg" xmlns:xlink="http://www.w3.org/1999/xlink" xml:space="preserve" xmlns:serif="http://www.serif.com/" style="fill:#000000;fill-rule:evenodd;clip-rule:evenodd;stroke-linejoin:round;stroke-miterlimit:1.41421;"><g><path d="M5.214,3.869c0.239,-0.221 0.54,-0.333 0.84,-0.348c0.381,-0.016 0.765,0.127 1.041,0.43c0.497,0.541 0.461,1.383 -0.082,1.88l-0.986,0.897l-0.895,-0.978c-0.494,-0.54 -0.46,-1.385 0.082,-1.881m9.164,9.779c-0.656,-0.719 -1.769,-0.766 -2.486,-0.109l-3.803,3.482c-0.537,0.496 -1.234,0.75 -1.963,0.715c-0.727,-0.031 -1.401,-0.345 -1.891,-0.882c-1.016,-1.108 -0.942,-2.84 0.168,-3.855l1.412,-1.295l1.179,1.288c0.656,0.717 1.769,0.765 2.486,0.109c0.717,-0.655 0.766,-1.77 0.11,-2.488l-1.178,-1.283l0.978,-0.903c1.974,-1.806 2.109,-4.88 0.3,-6.856c-1.805,-1.971 -4.881,-2.106 -6.855,-0.297c-1.971,1.809 -2.106,4.881 -0.298,6.857l0.9,0.979l-1.413,1.293c-2.54,2.328 -2.714,6.288 -0.384,8.829c1.128,1.23 2.665,1.95 4.333,2.022c0.188,0.007 0.37,0.007 0.555,0c1.465,-0.066 2.845,-0.634 3.94,-1.635l3.802,-3.485c0.718,-0.658 0.765,-1.771 0.108,-2.486" style="fill:#e84e0f;fill-rule:nonzero;"/><path d="M23.487,9.705c0,0.274 -0.195,0.443 -0.429,0.443l-3.557,0l0,0.352c0,1.029 0.456,1.706 1.498,1.706c0.56,0 0.912,-0.091 1.159,-0.182c0.3,-0.105 0.456,-0.235 0.665,-0.235c0.261,0 0.43,0.196 0.43,0.47c0,0.261 -0.274,0.481 -0.665,0.638c-0.455,0.183 -1.081,0.274 -1.654,0.274c-1.876,0 -2.566,-1.277 -2.566,-2.762l0,-1.212c0,-1.472 0.742,-2.762 2.566,-2.762c1.889,0 2.553,1.224 2.553,2.762l0,0.508Zm-2.54,-2.344c-1.015,0 -1.446,0.663 -1.446,1.667l0,0.221l2.879,0l0,-0.234c0,-1.003 -0.365,-1.654 -1.433,-1.654" style="fill:#000000;fill-rule:nonzero;"/><path d="M27.871,13.091l-0.391,0c-1.797,0 -2.266,-1.119 -2.266,-2.826l0,-2.775l-0.378,0c-0.274,0 -0.495,-0.222 -0.495,-0.482c0,-0.274 0.221,-0.495 0.495,-0.495l0.378,0l0,-1.342c0,-0.312 0.247,-0.573 0.573,-0.573c0.313,0 0.56,0.261 0.56,0.573l0,1.342l1.211,0c0.274,0 0.496,0.221 0.496,0.495c0,0.26 -0.222,0.482 -0.496,0.482l-1.211,0l0.014,2.762c0,1.302 0.208,1.798 1.237,1.798l0.273,0c0.287,0 0.509,0.234 0.509,0.519c0,0.288 -0.222,0.522 -0.509,0.522" style="fill:#000000;fill-rule:nonzero;"/><path d="M34.087,13.17c-0.313,0 -0.574,-0.247 -0.574,-0.574l0,-3.673c0,-0.821 -0.22,-1.406 -1.224,-1.406c-0.743,0 -1.277,0.325 -1.59,0.82l0,4.259c0,0.327 -0.247,0.574 -0.56,0.574c-0.313,0 -0.573,-0.247 -0.573,-0.574l0,-4.39c0,-0.521 -0.157,-0.677 -0.404,-0.821c-0.143,-0.078 -0.221,-0.208 -0.221,-0.377c0,-0.339 0.234,-0.496 0.56,-0.496c0.208,0 0.495,0.105 0.703,0.274c0.131,0.131 0.234,0.274 0.287,0.43c0.456,-0.495 1.12,-0.782 2.047,-0.782c1.641,0 2.122,1.017 2.122,2.385l0.014,3.777c0,0.327 -0.261,0.574 -0.587,0.574" style="fill:#000000;fill-rule:nonzero;"/><path d="M41.309,9.705c0,0.274 -0.195,0.443 -0.429,0.443l-3.557,0l0,0.352c0,1.029 0.456,1.706 1.499,1.706c0.559,0 0.911,-0.091 1.159,-0.182c0.3,-0.105 0.455,-0.235 0.665,-0.235c0.259,0 0.429,0.196 0.429,0.47c0,0.261 -0.274,0.481 -0.664,0.638c-0.457,0.183 -1.082,0.274 -1.655,0.274c-1.875,0 -2.567,-1.277 -2.567,-2.762l0,-1.212c0,-1.472 0.743,-2.762 2.567,-2.762c1.89,0 2.553,1.224 2.553,2.762l0,0.508Zm-2.54,-2.344c-1.015,0 -1.446,0.663 -1.446,1.667l0,0.221l2.879,0l0,-0.234c0,-1.003 -0.365,-1.654 -1.433,-1.654" style="fill:#000000;fill-rule:nonzero;"/><path d="M45.693,13.091l-0.39,0c-1.797,0 -2.266,-1.119 -2.266,-2.826l0,-2.775l-0.378,0c-0.274,0 -0.495,-0.222 -0.495,-0.482c0,-0.274 0.221,-0.495 0.495,-0.495l0.378,0l0,-1.342c0,-0.312 0.247,-0.573 0.573,-0.573c0.312,0 0.561,0.261 0.561,0.573l0,1.342l1.211,0c0.272,0 0.495,0.221 0.495,0.495c0,0.26 -0.223,0.482 -0.495,0.482l-1.211,0l0.013,2.762c0,1.302 0.208,1.798 1.236,1.798l0.274,0c0.286,0 0.509,0.234 0.509,0.519c-0.001,0.288 -0.224,0.522 -0.51,0.522" style="fill:#000000;fill-rule:nonzero;"/><path d="M51.922,9.705c0,0.274 -0.196,0.443 -0.43,0.443l-3.557,0l0,0.352c0,1.029 0.457,1.706 1.499,1.706c0.559,0 0.911,-0.091 1.16,-0.182c0.298,-0.105 0.455,-0.235 0.664,-0.235c0.261,0 0.43,0.196 0.43,0.47c0,0.261 -0.274,0.481 -0.665,0.638c-0.455,0.183 -1.081,0.274 -1.654,0.274c-1.876,0 -2.566,-1.277 -2.566,-2.762l0,-1.212c0,-1.472 0.742,-2.762 2.566,-2.762c1.889,0 2.553,1.224 2.553,2.762l0,0.508Zm-2.54,-2.344c-1.016,0 -1.448,0.663 -1.448,1.667l0,0.221l2.88,0l0,-0.234c0,-1.003 -0.364,-1.654 -1.432,-1.654" style="fill:#000000;fill-rule:nonzero;"/><path d="M56.922,7.634c-0.222,0 -0.339,-0.092 -0.795,-0.092c-0.547,0 -1.237,0.17 -1.458,1.173l0,3.881c0,0.327 -0.248,0.574 -0.56,0.574c-0.313,0 -0.574,-0.247 -0.574,-0.574l0,-4.389c0,-0.521 -0.157,-0.678 -0.405,-0.821c-0.141,-0.079 -0.221,-0.208 -0.221,-0.377c0,-0.314 0.208,-0.496 0.575,-0.496c0.493,0 0.885,0.404 1.041,0.808c0.56,-0.782 1.329,-0.873 1.797,-0.873c0.535,0 1.147,0.169 1.147,0.613c0,0.312 -0.196,0.573 -0.547,0.573" style="fill:#000000;fill-rule:nonzero;"/><path d="M62.668,13.17c-0.208,0 -0.416,-0.065 -0.586,-0.196c-0.141,-0.117 -0.273,-0.286 -0.338,-0.469c-0.482,0.535 -1.251,0.665 -1.824,0.665c-1.603,0 -2.281,-0.847 -2.281,-1.928l0,-0.092c0,-1.08 0.744,-1.888 2.412,-1.888l1.472,0l0,-0.326c0,-1.029 -0.248,-1.55 -1.342,-1.55c-0.457,0 -0.756,0.065 -1.003,0.17c-0.288,0.117 -0.431,0.221 -0.612,0.221c-0.274,0 -0.469,-0.209 -0.469,-0.456c0,-0.273 0.261,-0.482 0.625,-0.626c0.469,-0.195 1.042,-0.26 1.537,-0.26c1.85,0 2.398,0.899 2.398,2.605l0,2.436c0,0.521 0.117,0.677 0.363,0.808c0.143,0.091 0.223,0.221 0.223,0.391c-0.001,0.338 -0.235,0.495 -0.575,0.495m-1.145,-3.022l-1.368,0c-1.094,0 -1.382,0.481 -1.382,1.016l0,0.091c0,0.561 0.314,1.029 1.342,1.029c0.873,0 1.408,-0.443 1.408,-1.368l0,-0.768Z" style="fill:#000000;fill-rule:nonzero;"/></g></svg>